<svg xmlns="http://www.w3.org/2000/svg" width="600" height="300" viewBox="0 0 600 300"><rect width="100%" height="100%" fill="#0f0f23"/><path fill="#ffffff" d="M123.275 155.08h8.67v3.33h-12.7v-21.69h4.03zm11.09-12.06h3.72v15.39h-3.72zm4.23-4.49q0 .49-.2.91-.19.42-.51.73-.33.31-.76.5-.44.19-.93.19-.48 0-.91-.19t-.74-.5q-.32-.31-.5-.73-.19-.42-.19-.91t.19-.92q.18-.44.5-.75.31-.32.74-.51.43-.18.91-.18.49 0 .93.18.43.19.76.51.32.31.51.75.2.43.2.92m6.48 5.17.25 1.21q.47-.46.99-.86.51-.4 1.09-.68.58-.27 1.24-.43t1.44-.16q1.26 0 2.23.43.98.43 1.63 1.2t.99 1.84q.34 1.08.34 2.37v9.79h-3.71v-9.79q0-1.42-.64-2.19-.65-.77-1.97-.77-.96 0-1.8.44-.84.43-1.59 1.18v11.13h-3.7v-15.39h2.26q.72 0 .95.68m25.62 3.34h2.52q1.14 0 1.99-.28.84-.29 1.39-.79.55-.51.82-1.19.27-.69.27-1.52 0-1.65-1.09-2.53-1.09-.89-3.32-.89h-2.58zm7.47 3.36 5.43 8.01h-3.65q-1.03 0-1.5-.81l-4.56-6.94q-.25-.39-.56-.56-.31-.16-.91-.16h-1.72v8.47h-4.04v-21.69h6.62q2.2 0 3.79.46 1.58.46 2.59 1.28t1.49 1.97.48 2.53q0 1.1-.32 2.07-.32.98-.93 1.77-.61.8-1.5 1.4-.89.59-2.03.94.39.23.72.53.33.31.6.73m14.01-7.62q1.71 0 3.11.56 1.4.55 2.4 1.57t1.54 2.49.54 3.29q0 1.83-.54 3.3-.54 1.46-1.54 2.5-1 1.03-2.4 1.59-1.4.55-3.11.55-1.73 0-3.14-.55-1.41-.56-2.41-1.59-.99-1.04-1.54-2.5-.55-1.47-.55-3.3 0-1.82.55-3.29t1.54-2.49q1-1.02 2.41-1.57 1.41-.56 3.14-.56m0 13q1.92 0 2.84-1.29t.92-3.77q0-2.5-.92-3.8t-2.84-1.3q-1.95 0-2.89 1.31t-.94 3.79q0 2.47.94 3.77.94 1.29 2.89 1.29m17.23-13q1.71 0 3.11.56 1.41.55 2.41 1.57.99 1.02 1.53 2.49t.54 3.29q0 1.83-.54 3.3-.54 1.46-1.53 2.5-1 1.03-2.41 1.59-1.4.55-3.11.55-1.72 0-3.13-.55-1.41-.56-2.41-1.59-1-1.04-1.55-2.5-.54-1.47-.54-3.3 0-1.82.54-3.29.55-1.47 1.55-2.49t2.41-1.57q1.41-.56 3.13-.56m0 13q1.92 0 2.85-1.29.92-1.29.92-3.77 0-2.5-.92-3.8-.93-1.3-2.85-1.3-1.95 0-2.89 1.31-.93 1.31-.93 3.79 0 2.47.93 3.77.94 1.29 2.89 1.29m14.13 2.63h-3.7v-15.39h2.26q.72 0 .95.68l.24 1.14q.4-.46.84-.83.45-.37.95-.64t1.08-.43 1.27-.16q1.45 0 2.39.79t1.4 2.09q.36-.76.9-1.31t1.19-.9q.64-.34 1.37-.5.73-.17 1.46-.17 1.28 0 2.27.39t1.66 1.14q.68.75 1.03 1.83t.35 2.48v9.79h-3.7v-9.79q0-1.47-.65-2.22-.64-.74-1.89-.74-.57 0-1.05.2-.49.19-.86.56-.37.36-.58.92t-.21 1.28v9.79h-3.72v-9.79q0-1.55-.62-2.25-.62-.71-1.82-.71-.81 0-1.51.4-.7.39-1.3 1.09zm28.59-7.51v-3.1h7.77v3.1zm33.92-14.18h3.55v21.69h-2.07q-.48 0-.8-.16t-.62-.53l-11.33-14.46q.09.99.09 1.83v13.32h-3.55v-21.69h2.11q.26 0 .44.02.19.03.33.09.15.07.28.2.14.13.3.34l11.37 14.52q-.04-.53-.07-1.04t-.03-.94zm10.72 12.23h6.99q0-.73-.2-1.36-.2-.64-.61-1.12-.4-.48-1.03-.76-.62-.27-1.44-.27-1.61 0-2.53.91-.92.92-1.18 2.6m9.45 2.23h-9.52q.09 1.19.42 2.05t.87 1.42q.54.57 1.28.84.74.28 1.64.28t1.55-.21q.66-.21 1.14-.46.49-.26.86-.47t.71-.21q.47 0 .69.34l1.07 1.36q-.62.72-1.38 1.2-.77.49-1.6.78-.83.3-1.7.41-.86.12-1.67.12-1.6 0-2.98-.53t-2.4-1.57-1.61-2.58q-.58-1.54-.58-3.57 0-1.57.51-2.96t1.46-2.41q.95-1.03 2.32-1.63 1.38-.6 3.1-.6 1.46 0 2.69.47 1.23.46 2.11 1.35.89.9 1.39 2.19.5 1.3.5 2.97 0 .84-.18 1.13t-.69.29m10.46-8.4q1.71 0 3.11.56 1.4.55 2.4 1.57t1.54 2.49.54 3.29q0 1.83-.54 3.3-.54 1.46-1.54 2.5-1 1.03-2.4 1.59-1.4.55-3.11.55-1.73 0-3.14-.55-1.41-.56-2.41-1.59-.99-1.04-1.54-2.5-.55-1.47-.55-3.3 0-1.82.55-3.29t1.54-2.49q1-1.02 2.41-1.57 1.41-.56 3.14-.56m0 13q1.92 0 2.84-1.29t.92-3.77q0-2.5-.92-3.8t-2.84-1.3q-1.95 0-2.89 1.31t-.94 3.79q0 2.47.94 3.77.94 1.29 2.89 1.29m13.63-12.08.26 1.21q.46-.46.98-.86t1.09-.68q.58-.27 1.24-.43t1.44-.16q1.26 0 2.24.43.97.43 1.62 1.2.66.77.99 1.84.34 1.08.34 2.37v9.79h-3.7v-9.79q0-1.42-.65-2.19-.64-.77-1.96-.77-.96 0-1.8.44-.84.43-1.59 1.18v11.13h-3.71v-15.39h2.27q.72 0 .94.68m35.82-6.98h4.05v21.69h-4.05v-9.48h-10.18v9.48h-4.05v-21.69h4.05v9.33h10.18zm16.43 17.72v-2.6q-1.61.07-2.7.28-1.1.2-1.76.52-.66.31-.94.73-.29.42-.29.91 0 .98.58 1.4t1.51.42q1.14 0 1.97-.41t1.63-1.25m-7.83-8.09-.66-1.18q2.65-2.43 6.39-2.43 1.35 0 2.41.44 1.07.44 1.8 1.23.74.79 1.12 1.88t.38 2.4v9.72h-1.68q-.52 0-.81-.16-.28-.16-.45-.63l-.33-1.12q-.58.53-1.14.93-.55.4-1.15.66-.6.28-1.29.42-.68.14-1.5.14-.98 0-1.8-.26-.83-.26-1.43-.79-.6-.52-.93-1.3-.33-.79-.33-1.82 0-.58.2-1.16.19-.58.63-1.1.45-.53 1.15-.99.71-.47 1.73-.82 1.03-.34 2.4-.56 1.36-.22 3.12-.26v-.9q0-1.54-.66-2.29-.66-.74-1.91-.74-.9 0-1.49.21t-1.04.47q-.45.27-.82.48t-.82.21q-.39 0-.66-.21-.27-.2-.43-.47m18.13-2.65.26 1.21q.46-.46.98-.86t1.09-.68q.58-.27 1.24-.43t1.44-.16q1.26 0 2.24.43.97.43 1.62 1.2.66.77.99 1.84.34 1.08.34 2.37v9.79h-3.7v-9.79q0-1.42-.65-2.19-.64-.77-1.96-.77-.96 0-1.8.44-.84.43-1.59 1.18v11.13h-3.71v-15.39h2.27q.72 0 .94.68m19.34 6.64q.69 0 1.2-.19t.84-.52q.34-.33.51-.79.18-.47.18-1.02 0-1.14-.69-1.81-.68-.66-2.04-.66-1.37 0-2.05.66-.68.67-.68 1.81 0 .54.17 1.01.17.46.51.8.34.33.85.52.52.19 1.2.19m4.18 8.76q0-.45-.27-.73-.27-.29-.73-.45-.47-.16-1.09-.23t-1.32-.11-1.44-.07-1.45-.12q-.61.35-1 .81-.38.47-.38 1.08 0 .4.2.76.21.35.65.6.44.26 1.15.4.7.14 1.72.14 1.04 0 1.79-.15.75-.16 1.23-.44.49-.27.72-.66.22-.38.22-.83m-.73-15.56h4.42v1.39q0 .66-.79.81l-1.38.25q.31.79.31 1.74 0 1.14-.46 2.06-.45.93-1.26 1.57-.81.65-1.92 1-1.1.35-2.37.35-.45 0-.87-.05-.42-.04-.83-.12-.72.44-.72.98 0 .47.43.68.43.22 1.13.31.71.09 1.61.11.9.03 1.84.1.95.08 1.85.26.9.19 1.6.6.71.4 1.13 1.1.43.7.43 1.79 0 1.02-.5 1.98t-1.46 1.71q-.95.75-2.34 1.21-1.38.46-3.15.46-1.74 0-3.03-.34t-2.15-.9q-.85-.57-1.27-1.3t-.42-1.53q0-1.08.65-1.81t1.79-1.16q-.61-.31-.97-.84-.36-.52-.36-1.38 0-.34.12-.71.13-.37.38-.73t.62-.68q.38-.33.89-.58-1.17-.63-1.84-1.68t-.67-2.46q0-1.14.46-2.06t1.27-1.58q.82-.65 1.94-.99 1.12-.35 2.44-.35.99 0 1.86.2.87.21 1.59.59m13.57-.76q1.71 0 3.11.56 1.41.55 2.4 1.57 1 1.02 1.54 2.49t.54 3.29q0 1.83-.54 3.3-.54 1.46-1.54 2.5-.99 1.03-2.4 1.59-1.4.55-3.11.55-1.72 0-3.13-.55-1.41-.56-2.41-1.59-1-1.04-1.55-2.5-.54-1.47-.54-3.3 0-1.82.54-3.29.55-1.47 1.55-2.49t2.41-1.57q1.41-.56 3.13-.56m0 13q1.92 0 2.84-1.29.93-1.29.93-3.77 0-2.5-.93-3.8-.92-1.3-2.84-1.3-1.95 0-2.89 1.31-.93 1.31-.93 3.79 0 2.47.93 3.77.94 1.29 2.89 1.29m21.38-12.76h2.92l-6.1 15.39h-3.36l-6.11-15.39h3.06q.42 0 .7.19.28.2.37.5l2.97 8.22q.24.72.42 1.41t.31 1.38q.15-.69.33-1.38t.44-1.41l3.03-8.22q.1-.3.37-.5.27-.19.65-.19m7.81 5.93h6.99q0-.73-.2-1.36-.2-.64-.61-1.12-.4-.48-1.03-.76-.62-.27-1.44-.27-1.61 0-2.53.91-.92.92-1.18 2.6m9.45 2.23h-9.52q.09 1.19.42 2.05t.87 1.42q.54.57 1.28.84.74.28 1.64.28t1.55-.21q.66-.21 1.14-.46.49-.26.86-.47t.71-.21q.47 0 .69.34l1.07 1.36q-.62.72-1.38 1.2-.77.49-1.6.78-.83.3-1.7.41-.86.12-1.67.12-1.6 0-2.98-.53t-2.4-1.57-1.61-2.58q-.58-1.54-.58-3.57 0-1.57.51-2.96t1.46-2.41q.95-1.03 2.32-1.63 1.38-.6 3.1-.6 1.46 0 2.69.47 1.23.46 2.11 1.35.89.9 1.39 2.19.5 1.3.5 2.97 0 .84-.18 1.13t-.69.29m6.92-7.23.22 1.74q.72-1.38 1.71-2.17.99-.78 2.34-.78 1.07 0 1.71.46l-.24 2.78q-.07.27-.22.38-.14.11-.38.11-.22 0-.67-.07-.44-.08-.86-.08-.61 0-1.09.18t-.87.52q-.38.34-.67.82t-.55 1.09v9.48h-3.7v-15.39h2.17q.57 0 .8.2.22.21.3.73"/></svg>